# xmcd
#
# Track frame offsets: 
#        150
#        11997
#        24445
#        36323
#        49463
#        63082
#        74950
#        87643
#        101032
#        113182
#        126614
#        140559
#        152491
#        164846
#        176083
#        186184
#        197735
#        209311
#        219673
#        229947
#        240865
#        251865
#        262902
#        274044
#        284382
#
# Disc length: 3967 seconds
#
# Revision: 0
# Processed by: cddbd v1.5.2PL0 Copyright (c) Steve Scherf et al.
# Submitted via: ExactAudioCopy v0.99pb5
#
DISCID=8e0f7d19
DTITLE=Various Artist - Pioneers Of Country Music
DYEAR=2011
DGENRE=Country
TTITLE0=Hank Williams - Take These Chains From My Heart
TTITLE1=Johnny Cash - I Walk The Line
TTITLE2=Jim Reeves - Mexican Joe
TTITLE3=George Morgan - Candy Kisses
TTITLE4=Bill Monroe - Blue Moon Of Kentucky
TTITLE5=Gene Autry - Blueberry Hill
TTITLE6=Hank Snow - I'm Moving On
TTITLE7=Pee Wee King - Slow Poke
TTITLE8=Hank Thompson - The Wild Side Of Life
TTITLE9=The Davies Sisters - I Forgot More Than You'll Ever Know
TTITLE10=Lefty Frizzell - Always Late (With Your Kisses)
TTITLE11=Red Foley - Tennessee Saturday Night
TTITLE12=Merle Travis - Luisiana Boogie
TTITLE13=Chet Atkins - The Nashville Jump
TTITLE14=Kitty Wells - I Heard The Jukebox Playing
TTITLE15=Eddy Arnold - Easy On The Eyes
TTITLE16=Tennessee Ernie Ford - The Shotgun Boogie
TTITLE17=Al Terry - Hate Me Not
TTITLE18=Goldie Hill - Why Talk To My Heart
TTITLE19=Elvis Presley - Mystery Train
TTITLE20=Marty Robbins - Singing The Blues
TTITLE21=Webb Pierce - I Don't Care
TTITLE22=Slim Whitman - The Singing Hills
TTITLE23=Faron Young - Live Fast, Love Hard, Die Young
TTITLE24=Kitty Wells and Red Foley - One By One
EXTD=
EXTT0=
EXTT1=
EXTT2=
EXTT3=
EXTT4=
EXTT5=
EXTT6=
EXTT7=
EXTT8=
EXTT9=
EXTT10=
EXTT11=
EXTT12=
EXTT13=
EXTT14=
EXTT15=
EXTT16=
EXTT17=
EXTT18=
EXTT19=
EXTT20=
EXTT21=
EXTT22=
EXTT23=
EXTT24=
PLAYORDER=
